<?xml version="1.0" encoding="UTF-8" standalone="no"?>
<svg xmlns="http://www.w3.org/2000/svg" width="1200" height="800" viewBox="0 0 1200 800">
  <defs>
    <linearGradient id="grad1" x1="0%" y1="0%" x2="100%" y2="100%">
      <stop offset="0%" style="stop-color:#1a3a5f;stop-opacity:0.9" />
      <stop offset="100%" style="stop-color:#0f2b4c;stop-opacity:0.8" />
    </linearGradient>
    <pattern id="pattern1" patternUnits="userSpaceOnUse" width="100" height="100" patternTransform="rotate(45)">
      <rect width="50" height="50" fill="url(#grad1)" opacity="0.05" />
    </pattern>
  </defs>
  
  <!-- Background gradient -->
  <rect width="100%" height="100%" fill="url(#grad1)" />
  
  <!-- Pattern overlay -->
  <rect width="100%" height="100%" fill="url(#pattern1)" />
  
  <!-- Car silhouette -->
  <g transform="translate(350, 400) scale(0.6)" opacity="0.15" fill="#ffffff">
    <path d="M800,320 C800,320 780,220 650,220 L450,220 C320,220 250,320 250,320 L100,320 C50,320 0,370 0,420 L0,450 C0,500 50,550 100,550 L150,550 C150,600 190,640 240,640 C290,640 330,600 330,550 L720,550 C720,600 760,640 810,640 C860,640 900,600 900,550 L950,550 C1000,550 1050,500 1050,450 L1050,420 C1050,370 1000,320 950,320 L800,320 Z" />
    <circle cx="240" cy="550" r="70" fill="#444" stroke="#eee" stroke-width="10" />
    <circle cx="810" cy="550" r="70" fill="#444" stroke="#eee" stroke-width="10" />
  </g>
  
  <!-- Road lines -->
  <g stroke="#ffffff" stroke-width="3" stroke-dasharray="30 20" opacity="0.2">
    <line x1="0" y1="600" x2="1200" y2="600" />
    <line x1="0" y1="650" x2="1200" y2="650" />
  </g>
</svg>